# MagicaVoxel @ Ephtracy

# group
o 

# material
mtllib bookshelf.mtl
usemtl palette

# normals
vn -1 0 0
vn 1 0 0
vn 0 0 1
vn 0 0 -1
vn 0 -1 0
vn 0 1 0

# texcoords
vt 0.533203 0.5
vt 0.537109 0.5
vt 0.634766 0.5
vt 0.658203 0.5
vt 0.669922 0.5
vt 0.689453 0.5
vt 0.693359 0.5
vt 0.697266 0.5
vt 0.728516 0.5
vt 0.732422 0.5
vt 0.751953 0.5
vt 0.763672 0.5
vt 0.783203 0.5
vt 0.787109 0.5
vt 0.791016 0.5
vt 0.794922 0.5
vt 0.802734 0.5
vt 0.806641 0.5
vt 0.818359 0.5
vt 0.857422 0.5
vt 0.865234 0.5

# verts
v 1 1 -0.8
v 1 1 -1.5
v 1 3.2 -0.8
v 1 3.2 -1.5
v 2.3 1.8 -0.9
v 2.3 1.8 -1.4
v 2.3 2.4 -0.9
v 2.3 2.4 -1.4
v 2.7 1.1 -0.9
v 2.7 1.1 -1.4
v 2.7 1.7 -0.9
v 2.7 1.7 -1.4
v 3.1 1.1 -1.4
v 3.1 1.1 -1.5
v 3.1 1.7 -1.4
v 3.1 1.7 -1.5
v 3.1 1.8 -1.4
v 3.1 1.8 -1.5
v 3.1 2.4 -1.4
v 3.1 2.4 -1.5
v 3.1 2.5 -1.4
v 3.1 2.5 -1.5
v 3.1 3.1 -1.4
v 3.1 3.1 -1.5
v 1.1 1.1 -1.4
v 1.1 1.1 -1.5
v 1.1 1.7 -1.4
v 1.1 1.7 -1.5
v 1.1 1.8 -1.4
v 1.1 1.8 -1.5
v 1.1 2.4 -1.4
v 1.1 2.4 -1.5
v 1.1 2.5 -1.4
v 1.1 2.5 -1.5
v 1.1 3.1 -1.4
v 1.1 3.1 -1.5
v 1.6 2.1 -0.9
v 1.6 2.1 -1.3
v 1.6 2.1 -1.4
v 1.6 2.4 -0.9
v 1.6 2.4 -1.3
v 1.6 2.4 -1.4
v 2.2 1.8 -0.9
v 2.2 1.8 -1.3
v 2.2 1.8 -1.4
v 2.2 1.9 -0.9
v 2.2 1.9 -1.3
v 2.2 1.9 -1.4
v 2.2 2 -0.9
v 2.2 2 -1.4
v 2.2 2.1 -0.9
v 2.2 2.1 -1.4
v 2.3 1.1 -0.9
v 2.3 1.1 -1.3
v 2.3 1.1 -1.4
v 2.3 1.7 -0.9
v 2.3 1.7 -1.3
v 2.3 1.7 -1.4
v 3.2 1 -0.8
v 3.2 1 -1.5
v 3.2 3.2 -0.8
v 3.2 3.2 -1.5
v 1 1 -0.8
v 1 3.2 -0.8
v 3.2 1 -0.8
v 3.2 3.2 -0.8
v 1.6 2.1 -0.9
v 1.6 2.4 -0.9
v 2.2 1.8 -0.9
v 2.2 1.9 -0.9
v 2.2 2 -0.9
v 2.2 2.1 -0.9
v 2.3 1.1 -0.9
v 2.3 1.7 -0.9
v 2.3 1.8 -0.9
v 2.3 2.4 -0.9
v 2.7 1.1 -0.9
v 2.7 1.7 -0.9
v 1.1 1.1 -1.4
v 1.1 1.7 -1.4
v 1.1 1.8 -1.4
v 1.1 2.4 -1.4
v 1.1 2.5 -1.4
v 1.1 3.1 -1.4
v 1.2 1.1 -1.4
v 1.2 1.7 -1.4
v 1.2 2.5 -1.4
v 1.2 3.1 -1.4
v 1.3 1.1 -1.4
v 1.3 1.7 -1.4
v 1.3 1.8 -1.4
v 1.3 2.4 -1.4
v 1.3 2.5 -1.4
v 1.3 3.1 -1.4
v 1.4 1.1 -1.4
v 1.4 1.7 -1.4
v 1.4 1.8 -1.4
v 1.4 2.4 -1.4
v 1.5 2.5 -1.4
v 1.5 3.1 -1.4
v 1.6 1.1 -1.4
v 1.6 1.7 -1.4
v 1.6 1.8 -1.4
v 1.6 1.9 -1.4
v 1.6 2 -1.4
v 1.6 2.1 -1.4
v 1.6 2.4 -1.4
v 1.6 2.5 -1.4
v 1.6 3.1 -1.4
v 1.7 1.1 -1.4
v 1.7 1.7 -1.4
v 1.7 2.5 -1.4
v 1.7 3.1 -1.4
v 1.8 1.1 -1.4
v 1.8 1.7 -1.4
v 1.8 2.5 -1.4
v 1.8 3.1 -1.4
v 2 1.1 -1.4
v 2 1.7 -1.4
v 2 2.5 -1.4
v 2 3.1 -1.4
v 2.1 1.1 -1.4
v 2.1 1.7 -1.4
v 2.1 2.5 -1.4
v 2.1 3.1 -1.4
v 2.2 1.8 -1.4
v 2.2 1.9 -1.4
v 2.2 2 -1.4
v 2.2 2.1 -1.4
v 2.2 2.5 -1.4
v 2.2 3.1 -1.4
v 2.3 1.1 -1.4
v 2.3 1.7 -1.4
v 2.3 1.8 -1.4
v 2.3 2.4 -1.4
v 2.3 2.5 -1.4
v 2.3 3.1 -1.4
v 2.4 1.8 -1.4
v 2.4 2.4 -1.4
v 2.4 2.5 -1.4
v 2.4 3.1 -1.4
v 2.5 1.8 -1.4
v 2.5 2.4 -1.4
v 2.5 2.5 -1.4
v 2.5 3.1 -1.4
v 2.6 1.8 -1.4
v 2.6 2.4 -1.4
v 2.7 1.1 -1.4
v 2.7 1.7 -1.4
v 2.7 1.8 -1.4
v 2.7 2.4 -1.4
v 2.7 2.5 -1.4
v 2.7 3.1 -1.4
v 2.8 1.1 -1.4
v 2.8 1.7 -1.4
v 2.8 1.8 -1.4
v 2.8 2.4 -1.4
v 2.8 2.5 -1.4
v 2.8 3.1 -1.4
v 2.9 1.1 -1.4
v 2.9 1.7 -1.4
v 2.9 1.8 -1.4
v 2.9 2.4 -1.4
v 2.9 2.5 -1.4
v 2.9 3.1 -1.4
v 3 1.1 -1.4
v 3 1.7 -1.4
v 3 1.8 -1.4
v 3 2.4 -1.4
v 3 2.5 -1.4
v 3 3.1 -1.4
v 3.1 1.1 -1.4
v 3.1 1.7 -1.4
v 3.1 1.8 -1.4
v 3.1 2.4 -1.4
v 3.1 2.5 -1.4
v 3.1 3.1 -1.4
v 1 1 -1.5
v 1 3.2 -1.5
v 1.1 1.1 -1.5
v 1.1 1.7 -1.5
v 1.1 1.8 -1.5
v 1.1 2.4 -1.5
v 1.1 2.5 -1.5
v 1.1 3.1 -1.5
v 3.1 1.1 -1.5
v 3.1 1.7 -1.5
v 3.1 1.8 -1.5
v 3.1 2.4 -1.5
v 3.1 2.5 -1.5
v 3.1 3.1 -1.5
v 3.2 1 -1.5
v 3.2 3.2 -1.5
v 1 1 -0.8
v 3.2 1 -0.8
v 1 1 -1.5
v 3.2 1 -1.5
v 2.3 1.7 -0.9
v 2.7 1.7 -0.9
v 2.3 1.7 -1.3
v 1.1 1.7 -1.4
v 1.2 1.7 -1.4
v 1.3 1.7 -1.4
v 1.4 1.7 -1.4
v 1.6 1.7 -1.4
v 1.7 1.7 -1.4
v 1.8 1.7 -1.4
v 2 1.7 -1.4
v 2.1 1.7 -1.4
v 2.3 1.7 -1.4
v 2.7 1.7 -1.4
v 2.8 1.7 -1.4
v 2.9 1.7 -1.4
v 3 1.7 -1.4
v 3.1 1.7 -1.4
v 1.1 1.7 -1.5
v 3.1 1.7 -1.5
v 1.6 2.4 -0.9
v 2.3 2.4 -0.9
v 1.6 2.4 -1.3
v 1.1 2.4 -1.4
v 1.3 2.4 -1.4
v 1.4 2.4 -1.4
v 1.6 2.4 -1.4
v 2.3 2.4 -1.4
v 2.4 2.4 -1.4
v 2.5 2.4 -1.4
v 2.6 2.4 -1.4
v 2.7 2.4 -1.4
v 2.8 2.4 -1.4
v 2.9 2.4 -1.4
v 3 2.4 -1.4
v 3.1 2.4 -1.4
v 1.1 2.4 -1.5
v 3.1 2.4 -1.5
v 1.1 3.1 -1.4
v 1.2 3.1 -1.4
v 1.3 3.1 -1.4
v 1.5 3.1 -1.4
v 1.6 3.1 -1.4
v 1.7 3.1 -1.4
v 1.8 3.1 -1.4
v 2 3.1 -1.4
v 2.1 3.1 -1.4
v 2.2 3.1 -1.4
v 2.3 3.1 -1.4
v 2.4 3.1 -1.4
v 2.5 3.1 -1.4
v 2.7 3.1 -1.4
v 2.8 3.1 -1.4
v 2.9 3.1 -1.4
v 3 3.1 -1.4
v 3.1 3.1 -1.4
v 1.1 3.1 -1.5
v 3.1 3.1 -1.5
v 2.3 1.1 -0.9
v 2.7 1.1 -0.9
v 2.3 1.1 -1.3
v 1.1 1.1 -1.4
v 1.2 1.1 -1.4
v 1.3 1.1 -1.4
v 1.4 1.1 -1.4
v 1.6 1.1 -1.4
v 1.7 1.1 -1.4
v 1.8 1.1 -1.4
v 2 1.1 -1.4
v 2.1 1.1 -1.4
v 2.3 1.1 -1.4
v 2.7 1.1 -1.4
v 2.8 1.1 -1.4
v 2.9 1.1 -1.4
v 3 1.1 -1.4
v 3.1 1.1 -1.4
v 1.1 1.1 -1.5
v 3.1 1.1 -1.5
v 2.2 1.8 -0.9
v 2.3 1.8 -0.9
v 2.2 1.8 -1.3
v 1.1 1.8 -1.4
v 1.3 1.8 -1.4
v 1.4 1.8 -1.4
v 1.6 1.8 -1.4
v 2.2 1.8 -1.4
v 2.3 1.8 -1.4
v 2.4 1.8 -1.4
v 2.5 1.8 -1.4
v 2.6 1.8 -1.4
v 2.7 1.8 -1.4
v 2.8 1.8 -1.4
v 2.9 1.8 -1.4
v 3 1.8 -1.4
v 3.1 1.8 -1.4
v 1.1 1.8 -1.5
v 3.1 1.8 -1.5
v 1.6 2.1 -0.9
v 2.2 2.1 -0.9
v 1.6 2.1 -1.3
v 1.6 2.1 -1.4
v 2.2 2.1 -1.4
v 1.1 2.5 -1.4
v 1.2 2.5 -1.4
v 1.3 2.5 -1.4
v 1.5 2.5 -1.4
v 1.6 2.5 -1.4
v 1.7 2.5 -1.4
v 1.8 2.5 -1.4
v 2 2.5 -1.4
v 2.1 2.5 -1.4
v 2.2 2.5 -1.4
v 2.3 2.5 -1.4
v 2.4 2.5 -1.4
v 2.5 2.5 -1.4
v 2.7 2.5 -1.4
v 2.8 2.5 -1.4
v 2.9 2.5 -1.4
v 3 2.5 -1.4
v 3.1 2.5 -1.4
v 1.1 2.5 -1.5
v 3.1 2.5 -1.5
v 1 3.2 -0.8
v 3.2 3.2 -0.8
v 1 3.2 -1.5
v 3.2 3.2 -1.5

# faces
f 3/1/1 2/1/1 1/1/1
f 4/1/1 2/1/1 3/1/1
f 7/21/1 6/21/1 5/21/1
f 8/21/1 6/21/1 7/21/1
f 11/12/1 10/12/1 9/12/1
f 12/12/1 10/12/1 11/12/1
f 15/1/1 14/1/1 13/1/1
f 16/1/1 14/1/1 15/1/1
f 19/1/1 18/1/1 17/1/1
f 20/1/1 18/1/1 19/1/1
f 23/1/1 22/1/1 21/1/1
f 24/1/1 22/1/1 23/1/1
f 25/1/2 26/1/2 27/1/2
f 27/1/2 26/1/2 28/1/2
f 29/1/2 30/1/2 31/1/2
f 31/1/2 30/1/2 32/1/2
f 33/1/2 34/1/2 35/1/2
f 35/1/2 34/1/2 36/1/2
f 37/5/2 38/5/2 40/5/2
f 38/12/2 39/12/2 41/12/2
f 40/5/2 38/5/2 41/5/2
f 41/12/2 39/12/2 42/12/2
f 43/15/2 44/15/2 46/15/2
f 44/16/2 45/16/2 47/16/2
f 46/15/2 44/15/2 47/15/2
f 47/16/2 45/16/2 48/16/2
f 46/9/2 47/9/2 49/9/2
f 47/9/2 48/9/2 49/9/2
f 49/9/2 48/9/2 50/9/2
f 49/13/2 50/13/2 51/13/2
f 51/13/2 50/13/2 52/13/2
f 53/5/2 54/5/2 56/5/2
f 54/3/2 55/3/2 57/3/2
f 56/5/2 54/5/2 57/5/2
f 57/3/2 55/3/2 58/3/2
f 59/1/2 60/1/2 61/1/2
f 61/1/2 60/1/2 62/1/2
f 65/1/3 64/1/3 63/1/3
f 66/1/3 64/1/3 65/1/3
f 67/1/4 68/1/4 72/1/4
f 70/1/4 71/1/4 75/1/4
f 69/1/4 70/1/4 75/1/4
f 71/1/4 72/1/4 75/1/4
f 72/1/4 68/1/4 76/1/4
f 75/1/4 72/1/4 76/1/4
f 73/1/4 74/1/4 77/1/4
f 77/1/4 74/1/4 78/1/4
f 79/13/4 80/13/4 85/13/4
f 85/13/4 80/13/4 86/13/4
f 83/13/4 84/13/4 87/13/4
f 87/13/4 84/13/4 88/13/4
f 85/14/4 86/14/4 89/14/4
f 89/14/4 86/14/4 90/14/4
f 81/13/4 82/13/4 91/13/4
f 91/13/4 82/13/4 92/13/4
f 87/12/4 88/12/4 93/12/4
f 93/12/4 88/12/4 94/12/4
f 89/5/4 90/5/4 95/5/4
f 95/5/4 90/5/4 96/5/4
f 91/17/4 92/17/4 97/17/4
f 97/17/4 92/17/4 98/17/4
f 93/8/4 94/8/4 99/8/4
f 99/8/4 94/8/4 100/8/4
f 95/16/4 96/16/4 101/16/4
f 101/16/4 96/16/4 102/16/4
f 97/12/4 98/12/4 103/12/4
f 103/12/4 98/12/4 104/12/4
f 104/12/4 98/12/4 105/12/4
f 105/12/4 98/12/4 106/12/4
f 106/12/4 98/12/4 107/12/4
f 99/2/4 100/2/4 108/2/4
f 108/2/4 100/2/4 109/2/4
f 101/8/4 102/8/4 110/8/4
f 110/8/4 102/8/4 111/8/4
f 108/19/4 109/19/4 112/19/4
f 112/19/4 109/19/4 113/19/4
f 110/9/4 111/9/4 114/9/4
f 114/9/4 111/9/4 115/9/4
f 112/5/4 113/5/4 116/5/4
f 116/5/4 113/5/4 117/5/4
f 114/5/4 115/5/4 118/5/4
f 118/5/4 115/5/4 119/5/4
f 116/12/4 117/12/4 120/12/4
f 120/12/4 117/12/4 121/12/4
f 118/4/4 119/4/4 122/4/4
f 122/4/4 119/4/4 123/4/4
f 120/5/4 121/5/4 124/5/4
f 124/5/4 121/5/4 125/5/4
f 103/16/4 104/16/4 126/16/4
f 104/9/4 105/9/4 127/9/4
f 126/16/4 104/16/4 127/16/4
f 105/13/4 106/13/4 128/13/4
f 127/9/4 105/9/4 128/9/4
f 128/13/4 106/13/4 129/13/4
f 124/16/4 125/16/4 130/16/4
f 130/16/4 125/16/4 131/16/4
f 122/3/4 123/3/4 132/3/4
f 132/3/4 123/3/4 133/3/4
f 130/19/4 131/19/4 136/19/4
f 136/19/4 131/19/4 137/19/4
f 134/21/4 135/21/4 138/21/4
f 138/21/4 135/21/4 139/21/4
f 136/5/4 137/5/4 140/5/4
f 140/5/4 137/5/4 141/5/4
f 138/19/4 139/19/4 142/19/4
f 142/19/4 139/19/4 143/19/4
f 140/20/4 141/20/4 144/20/4
f 144/20/4 141/20/4 145/20/4
f 142/17/4 143/17/4 146/17/4
f 146/17/4 143/17/4 147/17/4
f 146/12/4 147/12/4 150/12/4
f 150/12/4 147/12/4 151/12/4
f 144/7/4 145/7/4 152/7/4
f 152/7/4 145/7/4 153/7/4
f 148/12/4 149/12/4 154/12/4
f 154/12/4 149/12/4 155/12/4
f 150/10/4 151/10/4 156/10/4
f 156/10/4 151/10/4 157/10/4
f 152/18/4 153/18/4 158/18/4
f 158/18/4 153/18/4 159/18/4
f 154/16/4 155/16/4 160/16/4
f 160/16/4 155/16/4 161/16/4
f 156/9/4 157/9/4 162/9/4
f 162/9/4 157/9/4 163/9/4
f 158/19/4 159/19/4 164/19/4
f 164/19/4 159/19/4 165/19/4
f 160/2/4 161/2/4 166/2/4
f 166/2/4 161/2/4 167/2/4
f 162/11/4 163/11/4 168/11/4
f 168/11/4 163/11/4 169/11/4
f 164/21/4 165/21/4 170/21/4
f 170/21/4 165/21/4 171/21/4
f 166/13/4 167/13/4 172/13/4
f 172/13/4 167/13/4 173/13/4
f 168/16/4 169/16/4 174/16/4
f 174/16/4 169/16/4 175/16/4
f 170/6/4 171/6/4 176/6/4
f 176/6/4 171/6/4 177/6/4
f 178/1/4 179/1/4 180/1/4
f 180/1/4 179/1/4 181/1/4
f 181/1/4 179/1/4 182/1/4
f 182/1/4 179/1/4 183/1/4
f 183/1/4 179/1/4 184/1/4
f 184/1/4 179/1/4 185/1/4
f 178/1/4 180/1/4 186/1/4
f 181/1/4 182/1/4 187/1/4
f 187/1/4 182/1/4 188/1/4
f 183/1/4 184/1/4 189/1/4
f 189/1/4 184/1/4 190/1/4
f 185/1/4 179/1/4 191/1/4
f 189/1/4 190/1/4 192/1/4
f 190/1/4 191/1/4 192/1/4
f 187/1/4 188/1/4 192/1/4
f 178/1/4 186/1/4 192/1/4
f 188/1/4 189/1/4 192/1/4
f 186/1/4 187/1/4 192/1/4
f 191/1/4 179/1/4 193/1/4
f 192/1/4 191/1/4 193/1/4
f 196/1/5 195/1/5 194/1/5
f 197/1/5 195/1/5 196/1/5
f 200/1/5 199/1/5 198/1/5
f 210/1/5 199/1/5 200/1/5
f 211/1/5 199/1/5 210/1/5
f 216/1/5 209/1/5 208/1/5
f 216/1/5 215/1/5 214/1/5
f 216/1/5 214/1/5 213/1/5
f 216/1/5 213/1/5 212/1/5
f 216/1/5 212/1/5 211/1/5
f 216/1/5 211/1/5 210/1/5
f 216/1/5 210/1/5 209/1/5
f 216/1/5 202/1/5 201/1/5
f 216/1/5 208/1/5 207/1/5
f 216/1/5 207/1/5 206/1/5
f 216/1/5 206/1/5 205/1/5
f 216/1/5 205/1/5 204/1/5
f 216/1/5 204/1/5 203/1/5
f 216/1/5 203/1/5 202/1/5
f 217/1/5 215/1/5 216/1/5
f 220/1/5 219/1/5 218/1/5
f 224/1/5 219/1/5 220/1/5
f 225/1/5 219/1/5 224/1/5
f 234/1/5 223/1/5 222/1/5
f 234/1/5 233/1/5 232/1/5
f 234/1/5 232/1/5 231/1/5
f 234/1/5 231/1/5 230/1/5
f 234/1/5 230/1/5 229/1/5
f 234/1/5 229/1/5 228/1/5
f 234/1/5 228/1/5 227/1/5
f 234/1/5 227/1/5 226/1/5
f 234/1/5 226/1/5 225/1/5
f 234/1/5 225/1/5 224/1/5
f 234/1/5 224/1/5 223/1/5
f 234/1/5 222/1/5 221/1/5
f 235/1/5 233/1/5 234/1/5
f 254/1/5 237/1/5 236/1/5
f 254/1/5 253/1/5 252/1/5
f 254/1/5 252/1/5 251/1/5
f 254/1/5 251/1/5 250/1/5
f 254/1/5 250/1/5 249/1/5
f 254/1/5 249/1/5 248/1/5
f 254/1/5 248/1/5 247/1/5
f 254/1/5 247/1/5 246/1/5
f 254/1/5 246/1/5 245/1/5
f 254/1/5 245/1/5 244/1/5
f 254/1/5 244/1/5 243/1/5
f 254/1/5 243/1/5 242/1/5
f 254/1/5 242/1/5 241/1/5
f 254/1/5 241/1/5 240/1/5
f 254/1/5 240/1/5 239/1/5
f 254/1/5 239/1/5 238/1/5
f 254/1/5 238/1/5 237/1/5
f 255/1/5 253/1/5 254/1/5
f 256/1/6 257/1/6 258/1/6
f 258/1/6 257/1/6 268/1/6
f 268/1/6 257/1/6 269/1/6
f 266/1/6 267/1/6 274/1/6
f 272/1/6 273/1/6 274/1/6
f 271/1/6 272/1/6 274/1/6
f 270/1/6 271/1/6 274/1/6
f 269/1/6 270/1/6 274/1/6
f 268/1/6 269/1/6 274/1/6
f 267/1/6 268/1/6 274/1/6
f 259/1/6 260/1/6 274/1/6
f 265/1/6 266/1/6 274/1/6
f 264/1/6 265/1/6 274/1/6
f 263/1/6 264/1/6 274/1/6
f 262/1/6 263/1/6 274/1/6
f 261/1/6 262/1/6 274/1/6
f 260/1/6 261/1/6 274/1/6
f 274/1/6 273/1/6 275/1/6
f 276/1/6 277/1/6 278/1/6
f 278/1/6 277/1/6 283/1/6
f 283/1/6 277/1/6 284/1/6
f 281/1/6 282/1/6 293/1/6
f 291/1/6 292/1/6 293/1/6
f 290/1/6 291/1/6 293/1/6
f 289/1/6 290/1/6 293/1/6
f 288/1/6 289/1/6 293/1/6
f 287/1/6 288/1/6 293/1/6
f 286/1/6 287/1/6 293/1/6
f 285/1/6 286/1/6 293/1/6
f 284/1/6 285/1/6 293/1/6
f 283/1/6 284/1/6 293/1/6
f 282/1/6 283/1/6 293/1/6
f 279/1/6 280/1/6 293/1/6
f 280/1/6 281/1/6 293/1/6
f 293/1/6 292/1/6 294/1/6
f 295/13/6 296/13/6 297/13/6
f 297/13/6 296/13/6 298/13/6
f 298/13/6 296/13/6 299/13/6
f 300/1/6 301/1/6 318/1/6
f 316/1/6 317/1/6 318/1/6
f 315/1/6 316/1/6 318/1/6
f 314/1/6 315/1/6 318/1/6
f 313/1/6 314/1/6 318/1/6
f 312/1/6 313/1/6 318/1/6
f 311/1/6 312/1/6 318/1/6
f 310/1/6 311/1/6 318/1/6
f 309/1/6 310/1/6 318/1/6
f 308/1/6 309/1/6 318/1/6
f 307/1/6 308/1/6 318/1/6
f 306/1/6 307/1/6 318/1/6
f 305/1/6 306/1/6 318/1/6
f 304/1/6 305/1/6 318/1/6
f 303/1/6 304/1/6 318/1/6
f 302/1/6 303/1/6 318/1/6
f 301/1/6 302/1/6 318/1/6
f 318/1/6 317/1/6 319/1/6
f 320/1/6 321/1/6 322/1/6
f 322/1/6 321/1/6 323/1/6
