# MagicaVoxel @ Ephtracy

# group
o 

# material
mtllib preloader.mtl
usemtl palette

# normals
vn -1 0 0
vn 1 0 0
vn 0 0 1
vn 0 0 -1
vn 0 -1 0
vn 0 1 0

# texcoords
vt 0.224609 0.5
vt 0.447266 0.5

# verts
v 0 1 -2
v 0 1 -2.1
v 0 3 -2
v 0 3 -2.1
v 0.1 1.6 -1.9
v 0.1 1.6 -2
v 0.1 1.9 -1.9
v 0.1 1.9 -2
v 0.5 2 -2
v 0.5 2 -2.1
v 0.5 2.4 -2
v 0.5 2.4 -2.1
v 0.6 1.6 -2
v 0.6 1.6 -2.1
v 0.6 1.7 -2
v 0.6 1.7 -2.1
v 0.7 1.5 -2
v 0.7 1.5 -2.1
v 0.7 1.6 -2
v 0.7 1.6 -2.1
v 0.7 2.6 -2
v 0.7 2.6 -2.1
v 0.7 2.7 -2
v 0.7 2.7 -2.1
v 0.8 1.4 -2
v 0.8 1.4 -2.1
v 0.8 1.5 -2
v 0.8 1.5 -2.1
v 0.8 2.5 -2
v 0.8 2.5 -2.1
v 0.8 2.6 -2
v 0.8 2.6 -2.1
v 1.1 2.5 -2
v 1.1 2.5 -2.1
v 1.1 2.6 -2
v 1.1 2.6 -2.1
v 1.2 1.5 -2
v 1.2 1.5 -2.1
v 1.2 1.6 -2
v 1.2 1.6 -2.1
v 1.2 2.6 -2
v 1.2 2.6 -2.1
v 1.2 2.7 -2
v 1.2 2.7 -2.1
v 1.3 1.6 -2
v 1.3 1.6 -2.1
v 1.3 1.7 -2
v 1.3 1.7 -2.1
v 1.3 2 -2
v 1.3 2 -2.1
v 1.3 2.4 -2
v 1.3 2.4 -2.1
v 1.5 1.6 -1.9
v 1.5 1.6 -2.1
v 1.5 1.9 -1.9
v 1.5 1.9 -2.1
v 1.8 1.2 -2
v 1.8 1.2 -2.1
v 1.8 1.6 -2
v 1.8 1.6 -2.1
v 1.8 1.9 -2
v 1.8 1.9 -2.1
v 1.8 2.8 -2
v 1.8 2.8 -2.1
v 0.2 1.2 -2
v 0.2 1.2 -2.1
v 0.2 1.6 -2
v 0.2 1.6 -2.1
v 0.2 1.9 -2
v 0.2 1.9 -2.1
v 0.2 2.8 -2
v 0.2 2.8 -2.1
v 0.5 1.6 -1.9
v 0.5 1.6 -2.1
v 0.5 1.9 -1.9
v 0.5 1.9 -2.1
v 0.7 1.6 -2
v 0.7 1.6 -2.1
v 0.7 1.7 -2
v 0.7 1.7 -2.1
v 0.7 2 -2
v 0.7 2 -2.1
v 0.7 2.4 -2
v 0.7 2.4 -2.1
v 0.8 1.5 -2
v 0.8 1.5 -2.1
v 0.8 1.6 -2
v 0.8 1.6 -2.1
v 0.8 2.6 -2
v 0.8 2.6 -2.1
v 0.8 2.7 -2
v 0.8 2.7 -2.1
v 0.9 2.5 -2
v 0.9 2.5 -2.1
v 0.9 2.6 -2
v 0.9 2.6 -2.1
v 1.2 1.4 -2
v 1.2 1.4 -2.1
v 1.2 1.5 -2
v 1.2 1.5 -2.1
v 1.2 2.5 -2
v 1.2 2.5 -2.1
v 1.2 2.6 -2
v 1.2 2.6 -2.1
v 1.3 1.5 -2
v 1.3 1.5 -2.1
v 1.3 1.6 -2
v 1.3 1.6 -2.1
v 1.3 2.6 -2
v 1.3 2.6 -2.1
v 1.3 2.7 -2
v 1.3 2.7 -2.1
v 1.4 1.6 -2
v 1.4 1.6 -2.1
v 1.4 1.7 -2
v 1.4 1.7 -2.1
v 1.5 2 -2
v 1.5 2 -2.1
v 1.5 2.4 -2
v 1.5 2.4 -2.1
v 1.9 1.6 -1.9
v 1.9 1.6 -2
v 1.9 1.9 -1.9
v 1.9 1.9 -2
v 2 1 -2
v 2 1 -2.1
v 2 3 -2
v 2 3 -2.1
v 0.1 1.6 -1.9
v 0.1 1.9 -1.9
v 0.5 1.6 -1.9
v 0.5 1.9 -1.9
v 1.5 1.6 -1.9
v 1.5 1.9 -1.9
v 1.9 1.6 -1.9
v 1.9 1.9 -1.9
v 0 1 -2
v 0 3 -2
v 0.1 1.6 -2
v 0.1 1.9 -2
v 0.2 1.2 -2
v 0.2 1.6 -2
v 0.2 1.9 -2
v 0.2 2.8 -2
v 0.5 2 -2
v 0.5 2.4 -2
v 0.6 1.6 -2
v 0.6 1.7 -2
v 0.7 1.5 -2
v 0.7 1.6 -2
v 0.7 1.7 -2
v 0.7 2 -2
v 0.7 2.4 -2
v 0.7 2.6 -2
v 0.7 2.7 -2
v 0.8 1.4 -2
v 0.8 1.5 -2
v 0.8 1.6 -2
v 0.8 2.5 -2
v 0.8 2.6 -2
v 0.8 2.7 -2
v 0.9 2.5 -2
v 0.9 2.6 -2
v 1.1 2.5 -2
v 1.1 2.6 -2
v 1.2 1.4 -2
v 1.2 1.5 -2
v 1.2 1.6 -2
v 1.2 2.5 -2
v 1.2 2.6 -2
v 1.2 2.7 -2
v 1.3 1.5 -2
v 1.3 1.6 -2
v 1.3 1.7 -2
v 1.3 2 -2
v 1.3 2.4 -2
v 1.3 2.6 -2
v 1.3 2.7 -2
v 1.4 1.6 -2
v 1.4 1.7 -2
v 1.5 2 -2
v 1.5 2.4 -2
v 1.8 1.2 -2
v 1.8 1.6 -2
v 1.8 1.9 -2
v 1.8 2.8 -2
v 1.9 1.6 -2
v 1.9 1.9 -2
v 2 1 -2
v 2 3 -2
v 0 1 -2.1
v 0 3 -2.1
v 0.2 1.2 -2.1
v 0.2 1.6 -2.1
v 0.2 1.9 -2.1
v 0.2 2.8 -2.1
v 0.5 1.6 -2.1
v 0.5 1.9 -2.1
v 0.5 2 -2.1
v 0.5 2.4 -2.1
v 0.6 1.6 -2.1
v 0.6 1.7 -2.1
v 0.7 1.5 -2.1
v 0.7 1.6 -2.1
v 0.7 1.7 -2.1
v 0.7 2 -2.1
v 0.7 2.4 -2.1
v 0.7 2.6 -2.1
v 0.7 2.7 -2.1
v 0.8 1.4 -2.1
v 0.8 1.5 -2.1
v 0.8 1.6 -2.1
v 0.8 2.5 -2.1
v 0.8 2.6 -2.1
v 0.8 2.7 -2.1
v 0.9 2.5 -2.1
v 0.9 2.6 -2.1
v 1.1 2.5 -2.1
v 1.1 2.6 -2.1
v 1.2 1.4 -2.1
v 1.2 1.5 -2.1
v 1.2 1.6 -2.1
v 1.2 2.5 -2.1
v 1.2 2.6 -2.1
v 1.2 2.7 -2.1
v 1.3 1.5 -2.1
v 1.3 1.6 -2.1
v 1.3 1.7 -2.1
v 1.3 2 -2.1
v 1.3 2.4 -2.1
v 1.3 2.6 -2.1
v 1.3 2.7 -2.1
v 1.4 1.6 -2.1
v 1.4 1.7 -2.1
v 1.5 1.6 -2.1
v 1.5 1.9 -2.1
v 1.5 2 -2.1
v 1.5 2.4 -2.1
v 1.8 1.2 -2.1
v 1.8 1.6 -2.1
v 1.8 1.9 -2.1
v 1.8 2.8 -2.1
v 2 1 -2.1
v 2 3 -2.1
v 0 1 -2
v 2 1 -2
v 0 1 -2.1
v 2 1 -2.1
v 0.8 1.4 -2
v 1.2 1.4 -2
v 0.8 1.4 -2.1
v 1.2 1.4 -2.1
v 0.7 1.5 -2
v 0.8 1.5 -2
v 1.2 1.5 -2
v 1.3 1.5 -2
v 0.7 1.5 -2.1
v 0.8 1.5 -2.1
v 1.2 1.5 -2.1
v 1.3 1.5 -2.1
v 0.1 1.6 -1.9
v 0.5 1.6 -1.9
v 1.5 1.6 -1.9
v 1.9 1.6 -1.9
v 0.1 1.6 -2
v 0.2 1.6 -2
v 0.6 1.6 -2
v 0.7 1.6 -2
v 1.3 1.6 -2
v 1.4 1.6 -2
v 1.8 1.6 -2
v 1.9 1.6 -2
v 0.2 1.6 -2.1
v 0.5 1.6 -2.1
v 0.6 1.6 -2.1
v 0.7 1.6 -2.1
v 1.3 1.6 -2.1
v 1.4 1.6 -2.1
v 1.5 1.6 -2.1
v 1.8 1.6 -2.1
v 0.5 2 -2
v 0.7 2 -2
v 1.3 2 -2
v 1.5 2 -2
v 0.5 2 -2.1
v 0.7 2 -2.1
v 1.3 2 -2.1
v 1.5 2 -2.1
v 0.8 2.5 -2
v 0.9 2.5 -2
v 1.1 2.5 -2
v 1.2 2.5 -2
v 0.8 2.5 -2.1
v 0.9 2.5 -2.1
v 1.1 2.5 -2.1
v 1.2 2.5 -2.1
v 0.7 2.6 -2
v 0.8 2.6 -2
v 1.2 2.6 -2
v 1.3 2.6 -2
v 0.7 2.6 -2.1
v 0.8 2.6 -2.1
v 1.2 2.6 -2.1
v 1.3 2.6 -2.1
v 0.2 2.8 -2
v 1.8 2.8 -2
v 0.2 2.8 -2.1
v 1.8 2.8 -2.1
v 0.2 1.2 -2
v 1.8 1.2 -2
v 0.2 1.2 -2.1
v 1.8 1.2 -2.1
v 0.8 1.5 -2
v 1.2 1.5 -2
v 0.8 1.5 -2.1
v 1.2 1.5 -2.1
v 0.7 1.6 -2
v 0.8 1.6 -2
v 1.2 1.6 -2
v 1.3 1.6 -2
v 0.7 1.6 -2.1
v 0.8 1.6 -2.1
v 1.2 1.6 -2.1
v 1.3 1.6 -2.1
v 0.6 1.7 -2
v 0.7 1.7 -2
v 1.3 1.7 -2
v 1.4 1.7 -2
v 0.6 1.7 -2.1
v 0.7 1.7 -2.1
v 1.3 1.7 -2.1
v 1.4 1.7 -2.1
v 0.1 1.9 -1.9
v 0.5 1.9 -1.9
v 1.5 1.9 -1.9
v 1.9 1.9 -1.9
v 0.1 1.9 -2
v 0.2 1.9 -2
v 1.8 1.9 -2
v 1.9 1.9 -2
v 0.2 1.9 -2.1
v 0.5 1.9 -2.1
v 1.5 1.9 -2.1
v 1.8 1.9 -2.1
v 0.5 2.4 -2
v 0.7 2.4 -2
v 1.3 2.4 -2
v 1.5 2.4 -2
v 0.5 2.4 -2.1
v 0.7 2.4 -2.1
v 1.3 2.4 -2.1
v 1.5 2.4 -2.1
v 0.8 2.6 -2
v 0.9 2.6 -2
v 1.1 2.6 -2
v 1.2 2.6 -2
v 0.8 2.6 -2.1
v 0.9 2.6 -2.1
v 1.1 2.6 -2.1
v 1.2 2.6 -2.1
v 0.7 2.7 -2
v 0.8 2.7 -2
v 1.2 2.7 -2
v 1.3 2.7 -2
v 0.7 2.7 -2.1
v 0.8 2.7 -2.1
v 1.2 2.7 -2.1
v 1.3 2.7 -2.1
v 0 3 -2
v 2 3 -2
v 0 3 -2.1
v 2 3 -2.1

# faces
f 3/2/1 2/2/1 1/2/1
f 4/2/1 2/2/1 3/2/1
f 7/1/1 6/1/1 5/1/1
f 8/1/1 6/1/1 7/1/1
f 11/2/1 10/2/1 9/2/1
f 12/2/1 10/2/1 11/2/1
f 15/2/1 14/2/1 13/2/1
f 16/2/1 14/2/1 15/2/1
f 19/2/1 18/2/1 17/2/1
f 20/2/1 18/2/1 19/2/1
f 23/2/1 22/2/1 21/2/1
f 24/2/1 22/2/1 23/2/1
f 27/2/1 26/2/1 25/2/1
f 28/2/1 26/2/1 27/2/1
f 31/2/1 30/2/1 29/2/1
f 32/2/1 30/2/1 31/2/1
f 35/2/1 34/2/1 33/2/1
f 36/2/1 34/2/1 35/2/1
f 39/2/1 38/2/1 37/2/1
f 40/2/1 38/2/1 39/2/1
f 43/2/1 42/2/1 41/2/1
f 44/2/1 42/2/1 43/2/1
f 47/2/1 46/2/1 45/2/1
f 48/2/1 46/2/1 47/2/1
f 51/2/1 50/2/1 49/2/1
f 52/2/1 50/2/1 51/2/1
f 55/1/1 54/1/1 53/1/1
f 56/1/1 54/1/1 55/1/1
f 59/2/1 58/2/1 57/2/1
f 60/2/1 58/2/1 59/2/1
f 63/2/1 62/2/1 61/2/1
f 64/2/1 62/2/1 63/2/1
f 65/2/2 66/2/2 67/2/2
f 67/2/2 66/2/2 68/2/2
f 69/2/2 70/2/2 71/2/2
f 71/2/2 70/2/2 72/2/2
f 73/1/2 74/1/2 75/1/2
f 75/1/2 74/1/2 76/1/2
f 77/2/2 78/2/2 79/2/2
f 79/2/2 78/2/2 80/2/2
f 81/2/2 82/2/2 83/2/2
f 83/2/2 82/2/2 84/2/2
f 85/2/2 86/2/2 87/2/2
f 87/2/2 86/2/2 88/2/2
f 89/2/2 90/2/2 91/2/2
f 91/2/2 90/2/2 92/2/2
f 93/2/2 94/2/2 95/2/2
f 95/2/2 94/2/2 96/2/2
f 97/2/2 98/2/2 99/2/2
f 99/2/2 98/2/2 100/2/2
f 101/2/2 102/2/2 103/2/2
f 103/2/2 102/2/2 104/2/2
f 105/2/2 106/2/2 107/2/2
f 107/2/2 106/2/2 108/2/2
f 109/2/2 110/2/2 111/2/2
f 111/2/2 110/2/2 112/2/2
f 113/2/2 114/2/2 115/2/2
f 115/2/2 114/2/2 116/2/2
f 117/2/2 118/2/2 119/2/2
f 119/2/2 118/2/2 120/2/2
f 121/1/2 122/1/2 123/1/2
f 123/1/2 122/1/2 124/1/2
f 125/2/2 126/2/2 127/2/2
f 127/2/2 126/2/2 128/2/2
f 131/1/3 130/1/3 129/1/3
f 132/1/3 130/1/3 131/1/3
f 135/1/3 134/1/3 133/1/3
f 136/1/3 134/1/3 135/1/3
f 139/2/3 138/2/3 137/2/3
f 140/2/3 138/2/3 139/2/3
f 141/2/3 139/2/3 137/2/3
f 142/2/3 139/2/3 141/2/3
f 143/2/3 138/2/3 140/2/3
f 144/2/3 138/2/3 143/2/3
f 150/2/3 148/2/3 147/2/3
f 151/2/3 148/2/3 150/2/3
f 152/2/3 146/2/3 145/2/3
f 153/2/3 146/2/3 152/2/3
f 157/2/3 150/2/3 149/2/3
f 158/2/3 150/2/3 157/2/3
f 160/2/3 155/2/3 154/2/3
f 161/2/3 155/2/3 160/2/3
f 162/2/3 160/2/3 159/2/3
f 163/2/3 160/2/3 162/2/3
f 166/2/3 157/2/3 156/2/3
f 167/2/3 157/2/3 166/2/3
f 169/2/3 165/2/3 164/2/3
f 170/2/3 165/2/3 169/2/3
f 172/2/3 168/2/3 167/2/3
f 173/2/3 168/2/3 172/2/3
f 177/2/3 171/2/3 170/2/3
f 178/2/3 171/2/3 177/2/3
f 179/2/3 174/2/3 173/2/3
f 180/2/3 174/2/3 179/2/3
f 181/2/3 176/2/3 175/2/3
f 182/2/3 176/2/3 181/2/3
f 183/2/3 141/2/3 137/2/3
f 186/2/3 138/2/3 144/2/3
f 187/2/3 184/2/3 183/2/3
f 188/2/3 186/2/3 185/2/3
f 189/2/3 187/2/3 183/2/3
f 189/2/3 188/2/3 187/2/3
f 189/2/3 183/2/3 137/2/3
f 190/2/3 186/2/3 188/2/3
f 190/2/3 188/2/3 189/2/3
f 190/2/3 138/2/3 186/2/3
f 191/2/4 192/2/4 193/2/4
f 193/2/4 192/2/4 194/2/4
f 194/2/4 192/2/4 195/2/4
f 195/2/4 192/2/4 196/2/4
f 194/1/4 195/1/4 197/1/4
f 197/1/4 195/1/4 198/1/4
f 201/2/4 202/2/4 204/2/4
f 204/2/4 202/2/4 205/2/4
f 199/2/4 200/2/4 206/2/4
f 206/2/4 200/2/4 207/2/4
f 203/2/4 204/2/4 211/2/4
f 211/2/4 204/2/4 212/2/4
f 208/2/4 209/2/4 214/2/4
f 214/2/4 209/2/4 215/2/4
f 213/2/4 214/2/4 216/2/4
f 216/2/4 214/2/4 217/2/4
f 210/2/4 211/2/4 220/2/4
f 220/2/4 211/2/4 221/2/4
f 218/2/4 219/2/4 223/2/4
f 223/2/4 219/2/4 224/2/4
f 221/2/4 222/2/4 226/2/4
f 226/2/4 222/2/4 227/2/4
f 224/2/4 225/2/4 231/2/4
f 231/2/4 225/2/4 232/2/4
f 227/2/4 228/2/4 233/2/4
f 233/2/4 228/2/4 234/2/4
f 229/2/4 230/2/4 237/2/4
f 237/2/4 230/2/4 238/2/4
f 191/2/4 193/2/4 239/2/4
f 235/1/4 236/1/4 240/1/4
f 240/1/4 236/1/4 241/1/4
f 196/2/4 192/2/4 242/2/4
f 240/2/4 241/2/4 243/2/4
f 241/2/4 242/2/4 243/2/4
f 239/2/4 240/2/4 243/2/4
f 191/2/4 239/2/4 243/2/4
f 242/2/4 192/2/4 244/2/4
f 243/2/4 242/2/4 244/2/4
f 247/2/5 246/2/5 245/2/5
f 248/2/5 246/2/5 247/2/5
f 251/2/5 250/2/5 249/2/5
f 252/2/5 250/2/5 251/2/5
f 257/2/5 254/2/5 253/2/5
f 258/2/5 254/2/5 257/2/5
f 259/2/5 256/2/5 255/2/5
f 260/2/5 256/2/5 259/2/5
f 265/1/5 262/1/5 261/1/5
f 266/1/5 262/1/5 265/1/5
f 271/1/5 264/1/5 263/1/5
f 272/1/5 264/1/5 271/1/5
f 273/1/5 262/1/5 266/1/5
f 274/1/5 262/1/5 273/1/5
f 275/2/5 268/2/5 267/2/5
f 276/2/5 268/2/5 275/2/5
f 277/2/5 270/2/5 269/2/5
f 278/2/5 270/2/5 277/2/5
f 279/1/5 271/1/5 263/1/5
f 280/1/5 271/1/5 279/1/5
f 285/2/5 282/2/5 281/2/5
f 286/2/5 282/2/5 285/2/5
f 287/2/5 284/2/5 283/2/5
f 288/2/5 284/2/5 287/2/5
f 293/2/5 290/2/5 289/2/5
f 294/2/5 290/2/5 293/2/5
f 295/2/5 292/2/5 291/2/5
f 296/2/5 292/2/5 295/2/5
f 301/2/5 298/2/5 297/2/5
f 302/2/5 298/2/5 301/2/5
f 303/2/5 300/2/5 299/2/5
f 304/2/5 300/2/5 303/2/5
f 307/2/5 306/2/5 305/2/5
f 308/2/5 306/2/5 307/2/5
f 309/2/6 310/2/6 311/2/6
f 311/2/6 310/2/6 312/2/6
f 313/2/6 314/2/6 315/2/6
f 315/2/6 314/2/6 316/2/6
f 317/2/6 318/2/6 321/2/6
f 321/2/6 318/2/6 322/2/6
f 319/2/6 320/2/6 323/2/6
f 323/2/6 320/2/6 324/2/6
f 325/2/6 326/2/6 329/2/6
f 329/2/6 326/2/6 330/2/6
f 327/2/6 328/2/6 331/2/6
f 331/2/6 328/2/6 332/2/6
f 333/1/6 334/1/6 337/1/6
f 337/1/6 334/1/6 338/1/6
f 335/1/6 336/1/6 339/1/6
f 339/1/6 336/1/6 340/1/6
f 338/1/6 334/1/6 341/1/6
f 341/1/6 334/1/6 342/1/6
f 335/1/6 339/1/6 343/1/6
f 343/1/6 339/1/6 344/1/6
f 345/2/6 346/2/6 349/2/6
f 349/2/6 346/2/6 350/2/6
f 347/2/6 348/2/6 351/2/6
f 351/2/6 348/2/6 352/2/6
f 353/2/6 354/2/6 357/2/6
f 357/2/6 354/2/6 358/2/6
f 355/2/6 356/2/6 359/2/6
f 359/2/6 356/2/6 360/2/6
f 361/2/6 362/2/6 365/2/6
f 365/2/6 362/2/6 366/2/6
f 363/2/6 364/2/6 367/2/6
f 367/2/6 364/2/6 368/2/6
f 369/2/6 370/2/6 371/2/6
f 371/2/6 370/2/6 372/2/6
