# MagicaVoxel @ Ephtracy

# group
o 

# material
mtllib switch.mtl
usemtl palette

# normals
vn -1 0 0
vn 1 0 0
vn 0 0 1
vn 0 0 -1
vn 0 -1 0
vn 0 1 0

# texcoords
vt 0.798828 0.5
vt 0.822266 0.5
vt 0.845703 0.5
vt 0.986328 0.5
vt 0.990234 0.5
vt 0.994141 0.5

# verts
v 0.4 1.1 -0.9
v 0.4 1.1 -1
v 0.4 1.6 -0.9
v 0.4 1.6 -1
v 0.5 1 -0.8
v 0.5 1 -1.1
v 0.5 1.1 -0.9
v 0.5 1.1 -1
v 0.5 1.5 -0.8
v 0.5 1.5 -0.9
v 0.5 1.5 -1
v 0.5 1.5 -1.1
v 1.4 1 -0.8
v 1.4 1 -1.1
v 1.4 1.1 -0.9
v 1.4 1.1 -1
v 1.4 1.5 -0.8
v 1.4 1.5 -0.9
v 1.4 1.5 -1
v 1.4 1.5 -1.1
v 1.5 1.1 -0.9
v 1.5 1.1 -1
v 1.5 1.6 -0.9
v 1.5 1.6 -1
v 0.5 1 -0.8
v 0.5 1.5 -0.8
v 0.7 1.2 -0.8
v 0.7 1.3 -0.8
v 0.8 1.2 -0.8
v 0.8 1.3 -0.8
v 0.9 1.2 -0.8
v 0.9 1.3 -0.8
v 1 1.2 -0.8
v 1 1.3 -0.8
v 1.1 1.2 -0.8
v 1.1 1.3 -0.8
v 1.2 1.2 -0.8
v 1.2 1.3 -0.8
v 1.4 1 -0.8
v 1.4 1.5 -0.8
v 0.4 1.1 -0.9
v 0.4 1.6 -0.9
v 0.5 1.1 -0.9
v 0.5 1.5 -0.9
v 0.6 1.5 -0.9
v 0.6 1.6 -0.9
v 1.3 1.5 -0.9
v 1.3 1.6 -0.9
v 1.4 1.1 -0.9
v 1.4 1.5 -0.9
v 1.5 1.1 -0.9
v 1.5 1.6 -0.9
v 0.4 1.1 -1
v 0.4 1.6 -1
v 0.5 1.1 -1
v 0.5 1.5 -1
v 0.6 1.5 -1
v 0.6 1.6 -1
v 1.3 1.5 -1
v 1.3 1.6 -1
v 1.4 1.1 -1
v 1.4 1.5 -1
v 1.5 1.1 -1
v 1.5 1.6 -1
v 0.5 1 -1.1
v 0.5 1.5 -1.1
v 0.7 1.2 -1.1
v 0.7 1.3 -1.1
v 0.8 1.2 -1.1
v 0.8 1.3 -1.1
v 0.9 1.2 -1.1
v 0.9 1.3 -1.1
v 1 1.2 -1.1
v 1 1.3 -1.1
v 1.1 1.2 -1.1
v 1.1 1.3 -1.1
v 1.2 1.2 -1.1
v 1.2 1.3 -1.1
v 1.4 1 -1.1
v 1.4 1.5 -1.1
v 0.5 1 -0.8
v 1.4 1 -0.8
v 0.6 1 -0.9
v 1.3 1 -0.9
v 0.6 1 -1
v 1.3 1 -1
v 0.5 1 -1.1
v 1.4 1 -1.1
v 0.4 1.1 -0.9
v 0.5 1.1 -0.9
v 1.4 1.1 -0.9
v 1.5 1.1 -0.9
v 0.4 1.1 -1
v 0.5 1.1 -1
v 1.4 1.1 -1
v 1.5 1.1 -1
v 0.5 1.5 -0.8
v 1.4 1.5 -0.8
v 0.5 1.5 -0.9
v 0.6 1.5 -0.9
v 1.3 1.5 -0.9
v 1.4 1.5 -0.9
v 0.5 1.5 -1
v 0.6 1.5 -1
v 1.3 1.5 -1
v 1.4 1.5 -1
v 0.5 1.5 -1.1
v 1.4 1.5 -1.1
v 0.4 1.6 -0.9
v 0.6 1.6 -0.9
v 1.3 1.6 -0.9
v 1.5 1.6 -0.9
v 0.4 1.6 -1
v 0.6 1.6 -1
v 1.3 1.6 -1
v 1.5 1.6 -1

# faces
f 3/3/1 2/3/1 1/3/1
f 4/3/1 2/3/1 3/3/1
f 7/5/1 6/5/1 5/5/1
f 8/5/1 6/5/1 7/5/1
f 9/5/1 7/5/1 5/5/1
f 10/5/1 7/5/1 9/5/1
f 11/5/1 6/5/1 8/5/1
f 12/5/1 6/5/1 11/5/1
f 13/5/2 14/5/2 15/5/2
f 15/5/2 14/5/2 16/5/2
f 13/5/2 15/5/2 17/5/2
f 17/5/2 15/5/2 18/5/2
f 16/5/2 14/5/2 19/5/2
f 19/5/2 14/5/2 20/5/2
f 21/1/2 22/1/2 23/1/2
f 23/1/2 22/1/2 24/1/2
f 27/5/3 26/5/3 25/5/3
f 28/5/3 26/5/3 27/5/3
f 29/5/3 27/5/3 25/5/3
f 29/4/3 28/4/3 27/4/3
f 30/5/3 26/5/3 28/5/3
f 30/4/3 28/4/3 29/4/3
f 31/5/3 29/5/3 25/5/3
f 31/5/3 30/5/3 29/5/3
f 32/5/3 26/5/3 30/5/3
f 32/5/3 30/5/3 31/5/3
f 33/5/3 31/5/3 25/5/3
f 33/4/3 32/4/3 31/4/3
f 34/5/3 26/5/3 32/5/3
f 34/4/3 32/4/3 33/4/3
f 35/5/3 33/5/3 25/5/3
f 35/5/3 34/5/3 33/5/3
f 36/5/3 26/5/3 34/5/3
f 36/5/3 34/5/3 35/5/3
f 37/5/3 35/5/3 25/5/3
f 37/4/3 36/4/3 35/4/3
f 38/5/3 26/5/3 36/5/3
f 38/4/3 36/4/3 37/4/3
f 39/5/3 37/5/3 25/5/3
f 39/5/3 38/5/3 37/5/3
f 40/5/3 26/5/3 38/5/3
f 40/5/3 38/5/3 39/5/3
f 43/3/3 42/3/3 41/3/3
f 44/3/3 42/3/3 43/3/3
f 45/3/3 42/3/3 44/3/3
f 46/3/3 42/3/3 45/3/3
f 47/6/3 46/6/3 45/6/3
f 48/6/3 46/6/3 47/6/3
f 50/1/3 48/1/3 47/1/3
f 51/1/3 50/1/3 49/1/3
f 52/1/3 48/1/3 50/1/3
f 52/1/3 50/1/3 51/1/3
f 53/3/4 54/3/4 55/3/4
f 55/3/4 54/3/4 56/3/4
f 56/3/4 54/3/4 57/3/4
f 57/3/4 54/3/4 58/3/4
f 57/6/4 58/6/4 59/6/4
f 59/6/4 58/6/4 60/6/4
f 59/1/4 60/1/4 62/1/4
f 61/1/4 62/1/4 63/1/4
f 62/1/4 60/1/4 64/1/4
f 63/1/4 62/1/4 64/1/4
f 65/5/4 66/5/4 67/5/4
f 67/5/4 66/5/4 68/5/4
f 65/5/4 67/5/4 69/5/4
f 67/4/4 68/4/4 69/4/4
f 68/5/4 66/5/4 70/5/4
f 69/4/4 68/4/4 70/4/4
f 65/5/4 69/5/4 71/5/4
f 69/5/4 70/5/4 71/5/4
f 70/5/4 66/5/4 72/5/4
f 71/5/4 70/5/4 72/5/4
f 65/5/4 71/5/4 73/5/4
f 71/4/4 72/4/4 73/4/4
f 72/5/4 66/5/4 74/5/4
f 73/4/4 72/4/4 74/4/4
f 65/5/4 73/5/4 75/5/4
f 73/5/4 74/5/4 75/5/4
f 74/5/4 66/5/4 76/5/4
f 75/5/4 74/5/4 76/5/4
f 65/5/4 75/5/4 77/5/4
f 75/4/4 76/4/4 77/4/4
f 76/5/4 66/5/4 78/5/4
f 77/4/4 76/4/4 78/4/4
f 65/5/4 77/5/4 79/5/4
f 77/5/4 78/5/4 79/5/4
f 78/5/4 66/5/4 80/5/4
f 79/5/4 78/5/4 80/5/4
f 83/5/5 82/5/5 81/5/5
f 84/5/5 82/5/5 83/5/5
f 85/5/5 83/5/5 81/5/5
f 85/6/5 84/6/5 83/6/5
f 86/5/5 82/5/5 84/5/5
f 86/6/5 84/6/5 85/6/5
f 87/5/5 85/5/5 81/5/5
f 87/5/5 86/5/5 85/5/5
f 88/5/5 82/5/5 86/5/5
f 88/5/5 86/5/5 87/5/5
f 93/3/5 90/3/5 89/3/5
f 94/3/5 90/3/5 93/3/5
f 95/1/5 92/1/5 91/1/5
f 96/1/5 92/1/5 95/1/5
f 97/5/6 98/5/6 99/5/6
f 99/5/6 98/5/6 100/5/6
f 100/5/6 98/5/6 101/5/6
f 101/5/6 98/5/6 102/5/6
f 103/5/6 104/5/6 107/5/6
f 105/5/6 106/5/6 107/5/6
f 104/5/6 105/5/6 107/5/6
f 107/5/6 106/5/6 108/5/6
f 109/3/6 110/3/6 113/3/6
f 110/6/6 111/6/6 114/6/6
f 113/3/6 110/3/6 114/3/6
f 111/1/6 112/1/6 115/1/6
f 114/6/6 111/6/6 115/6/6
f 115/1/6 112/1/6 116/1/6
